# xmcd CD database file
#
# Track frame offsets:
#	187
#	20975
#	46320
#	67282
#	84842
#	113375
#	132745
#	150105
#	171262
#	191510
#	206257
#
# Disc length: 2983 seconds
#
# Revision: 1
# Processed by: cddbd v1.5.1PL2 Copyright (c) Steve Scherf et al.
# Submitted via: CDex 1.51
#
DISCID=8e0ba50b
DTITLE=Julia Fordham - Porcelain
DYEAR=1900
DGENRE=
TTITLE0=Lock and Key
TTITLE1=Porcelain
TTITLE2=Girlfriend
TTITLE3=For You Only For You
TTITLE4=Genius
TTITLE5=Did I Happen To Mention?
TTITLE6=Towerblock
TTITLE7=Island
TTITLE8=Your Lovely Face
TTITLE9=China Blue
TTITLE10=Prince Of Peace
EXTD=
EXTT0=
EXTT1=
EXTT2=
EXTT3=
EXTT4=
EXTT5=
EXTT6=
EXTT7=
EXTT8=
EXTT9=
EXTT10=
PLAYORDER=
